<svg xmlns="http://www.w3.org/2000/svg" width="1600" height="180" viewBox="0 0 1600 180" preserveAspectRatio="xMidYMid slice">
  <rect width="1600" height="180" fill="none"/>
  <g fill="#ffffff" opacity=".98">
    <rect x="40" y="40" width="90" height="22" rx="2"/>
    <rect x="80" y="30" width="70" height="18" rx="2"/>
    <rect x="190" y="60" width="120" height="24" rx="2"/>
    <rect x="240" y="50" width="70" height="18" rx="2"/>
    <rect x="420" y="30" width="130" height="24" rx="2"/>
    <rect x="470" y="20" width="80" height="16" rx="2"/>
    <rect x="660" y="50" width="110" height="22" rx="2"/>
    <rect x="690" y="38" width="60" height="16" rx="2"/>
    <rect x="860" y="36" width="120" height="22" rx="2"/>
    <rect x="900" y="26" width="70" height="16" rx="2"/>
    <rect x="1080" y="60" width="130" height="24" rx="2"/>
    <rect x="1140" y="50" width="70" height="18" rx="2"/>
    <rect x="1320" y="30" width="120" height="24" rx="2"/>
    <rect x="1360" y="20" width="80" height="16" rx="2"/>
  </g>
</svg>