<svg xmlns="http://www.w3.org/2000/svg" width="1600" height="180" viewBox="0 0 1600 180" preserveAspectRatio="xMidYMax slice">
  <rect width="1600" height="180" fill="#19325d"/>
  <g opacity=".9">
    <rect x="0" y="130" width="1600" height="50" fill="#152a4f"/>
    <!-- Left side dots -->
    <circle cx="40" cy="150" r="4" fill="#4cc9f0"/>
    <circle cx="80" cy="160" r="3" fill="#a3e635"/>
    <circle cx="120" cy="155" r="2" fill="#f472b6"/>
    <circle cx="140" cy="150" r="4" fill="#4cc9f0"/>
    <circle cx="180" cy="165" r="3" fill="#fbbf24"/>
    <circle cx="220" cy="152" r="2" fill="#f472b6"/>
    <circle cx="240" cy="160" r="3" fill="#a3e635"/>
    <circle cx="280" cy="158" r="4" fill="#4cc9f0"/>
    <circle cx="300" cy="155" r="2" fill="#f472b6"/>
    <!-- Center dots -->
    <circle cx="720" cy="150" r="4" fill="#4cc9f0"/>
    <circle cx="760" cy="158" r="3" fill="#fbbf24"/>
    <circle cx="820" cy="160" r="3" fill="#a3e635"/>
    <circle cx="860" cy="152" r="2" fill="#f472b6"/>
    <circle cx="880" cy="155" r="2" fill="#f472b6"/>
    <!-- Right side dots -->
    <circle cx="1240" cy="150" r="4" fill="#4cc9f0"/>
    <circle cx="1280" cy="160" r="3" fill="#a3e635"/>
    <circle cx="1320" cy="155" r="2" fill="#f472b6"/>
    <circle cx="1360" cy="152" r="4" fill="#4cc9f0"/>
    <circle cx="1400" cy="158" r="3" fill="#fbbf24"/>
    <circle cx="1440" cy="165" r="3" fill="#a3e635"/>
    <circle cx="1480" cy="150" r="2" fill="#f472b6"/>
    <circle cx="1520" cy="160" r="4" fill="#4cc9f0"/>
    <circle cx="1560" cy="155" r="3" fill="#a3e635"/>
  </g>
</svg>